<svg xmlns="http://www.w3.org/2000/svg" viewBox="0 0 122.2 90.6"><defs><style>.cls-1{fill:#606060;}</style></defs><g id="Шар_2" data-name="Шар 2"><g id="Layer_1" data-name="Layer 1"><path class="cls-1" d="M119.5,14.7H90.4L80.9,1.1A2.66,2.66,0,0,0,78.7,0H39.9a2.66,2.66,0,0,0-2.2,1.1L28.2,14.7H25.4V10.1a2.58,2.58,0,0,0-2.6-2.6H9.8a2.58,2.58,0,0,0-2.6,2.6v4.6H2.6A2.58,2.58,0,0,0,0,17.3V88a2.58,2.58,0,0,0,2.6,2.6h117a2.58,2.58,0,0,0,2.6-2.6V17.3A2.67,2.67,0,0,0,119.5,14.7Zm-107.1-2h7.7v2H12.4ZM116.9,85.4H5.2V19.9H29.8A2.66,2.66,0,0,0,32,18.8L41.5,5.2h36L87,18.8a2.66,2.66,0,0,0,2.2,1.1h27.9V85.4Z"/><path class="cls-1" d="M61,26.9A25.8,25.8,0,1,0,86.8,52.7,25.86,25.86,0,0,0,61,26.9Zm0,46.3A20.5,20.5,0,1,1,81.5,52.7,20.53,20.53,0,0,1,61,73.2Z"/><circle class="cls-1" cx="105.3" cy="29.6" r="3.8"/></g></g></svg>